<svg width="177" height="36" viewBox="0 0 177 36" fill="none" xmlns="http://www.w3.org/2000/svg">
<path d="M17.7 1.67488L21.093 12.5224L21.204 12.8772L21.5757 12.8731L32.9408 12.748L23.6727 19.327L23.3696 19.5422L23.4883 19.8944L27.1193 30.6646L17.9983 23.8832L17.7 23.6613L17.4017 23.8832L8.28067 30.6646L11.9117 19.8944L12.0304 19.5422L11.7273 19.327L2.4592 12.748L13.8243 12.8731L14.196 12.8772L14.307 12.5224L17.7 1.67488Z" fill="#FFC738" stroke="#DD9F00"/>
<path d="M53.1003 1.67488L56.4933 12.5224L56.6043 12.8772L56.976 12.8731L68.3411 12.748L59.073 19.327L58.7698 19.5422L58.8886 19.8944L62.5196 30.6646L53.3986 23.8832L53.1003 23.6613L52.8019 23.8832L43.6809 30.6646L47.3119 19.8944L47.4307 19.5422L47.1276 19.327L37.8595 12.748L49.2246 12.8731L49.5963 12.8772L49.7073 12.5224L53.1003 1.67488Z" fill="#FFC738" stroke="#DD9F00"/>
<path d="M88.4999 1.67488L91.8929 12.5224L92.0039 12.8772L92.3756 12.8731L103.741 12.748L94.4726 19.327L94.1694 19.5422L94.2882 19.8944L97.9192 30.6646L88.7982 23.8832L88.4999 23.6613L88.2015 23.8832L79.0805 30.6646L82.7115 19.8944L82.8303 19.5422L82.5272 19.327L73.2591 12.748L84.6241 12.8731L84.9959 12.8772L85.1069 12.5224L88.4999 1.67488Z" fill="#FFC738" stroke="#DD9F00"/>
<path d="M123.9 1.67488L127.293 12.5224L127.404 12.8772L127.776 12.8731L139.141 12.748L129.873 19.327L129.57 19.5422L129.688 19.8944L133.319 30.6646L124.198 23.8832L123.9 23.6613L123.602 23.8832L114.481 30.6646L118.112 19.8944L118.231 19.5422L117.927 19.327L108.659 12.748L120.024 12.8731L120.396 12.8772L120.507 12.5224L123.9 1.67488Z" fill="#FFC738" stroke="#DD9F00"/>
<path d="M159.3 1.67488L162.693 12.5224L162.804 12.8772L163.175 12.8731L174.541 12.748L165.272 19.327L164.969 19.5422L165.088 19.8944L168.719 30.6646L159.598 23.8832L159.3 23.6613L159.001 23.8832L149.88 30.6646L153.511 19.8944L153.63 19.5422L153.327 19.327L144.059 12.748L155.424 12.8731L155.796 12.8772L155.907 12.5224L159.3 1.67488Z" fill="#FFC738" stroke="#DD9F00"/>
</svg>
